<svg width="70" height="70" viewBox="0 0 70 70" fill="none" xmlns="http://www.w3.org/2000/svg">
<circle cx="35" cy="35" r="35" fill="#F5F9FC"/>
<g clip-path="url(#clip0)">
<path d="M18 26.8941V47.1863C18 47.8496 18.6697 48.3031 19.2855 48.057L27.375 44.375V21.875L19.1789 25.1533C18.831 25.2925 18.5327 25.5327 18.3226 25.843C18.1124 26.1533 18.0001 26.5194 18 26.8941V26.8941ZM29.25 44.375L40.5 48.125V25.625L29.25 21.875V44.375ZM50.4645 21.943L42.375 25.625V48.125L50.5711 44.8467C50.9191 44.7076 51.2174 44.4674 51.4275 44.1571C51.6377 43.8468 51.75 43.4806 51.75 43.1059V22.8137C51.75 22.1504 51.0803 21.6969 50.4645 21.943V21.943Z" fill="#304659"/>
</g>
<defs>
<clipPath id="clip0">
<rect x="18" y="20" width="33.75" height="30" fill="white"/>
</clipPath>
</defs>
</svg>
