<svg width="70" height="70" viewBox="0 0 70 70" fill="none" xmlns="http://www.w3.org/2000/svg">
<circle cx="35" cy="35" r="35" fill="#F5F9FC"/>
<g clip-path="url(#clip0)">
<path d="M34.0938 49.3947C25.5803 37.0526 24 35.7859 24 31.25C24 25.0368 29.0368 20 35.25 20C41.4632 20 46.5 25.0368 46.5 31.25C46.5 35.7859 44.9197 37.0526 36.4062 49.3947C35.8475 50.2018 34.6525 50.2017 34.0938 49.3947ZM35.25 35.9375C37.8388 35.9375 39.9375 33.8388 39.9375 31.25C39.9375 28.6612 37.8388 26.5625 35.25 26.5625C32.6612 26.5625 30.5625 28.6612 30.5625 31.25C30.5625 33.8388 32.6612 35.9375 35.25 35.9375Z" fill="#304659"/>
</g>
<defs>
<clipPath id="clip0">
<rect x="24" y="20" width="22.5" height="30" fill="white"/>
</clipPath>
</defs>
</svg>
