<svg width="70" height="70" viewBox="0 0 70 70" fill="none" xmlns="http://www.w3.org/2000/svg">
<circle cx="35" cy="35" r="35" fill="#F5F9FC"/>
<g clip-path="url(#clip0)">
<path d="M29.125 35C33.2676 35 36.625 31.6426 36.625 27.5C36.625 23.3574 33.2676 20 29.125 20C24.9824 20 21.625 23.3574 21.625 27.5C21.625 31.6426 24.9824 35 29.125 35ZM34.375 36.875H33.3965C32.0957 37.4727 30.6484 37.8125 29.125 37.8125C27.6016 37.8125 26.1602 37.4727 24.8535 36.875H23.875C19.5273 36.875 16 40.4023 16 44.75V47.1875C16 48.7402 17.2598 50 18.8125 50H39.4375C40.9902 50 42.25 48.7402 42.25 47.1875V44.75C42.25 40.4023 38.7227 36.875 34.375 36.875ZM53.3008 29.3516L51.6719 27.7051C51.4023 27.4297 50.9629 27.4297 50.6875 27.6992L44.5469 33.793L41.8809 31.1094C41.6113 30.834 41.1719 30.834 40.8965 31.1035L39.25 32.7383C38.9746 33.0078 38.9746 33.4473 39.2441 33.7227L44.0313 38.5449C44.3008 38.8203 44.7402 38.8203 45.0156 38.5508L53.2949 30.3359C53.5645 30.0605 53.5703 29.6211 53.3008 29.3516V29.3516Z" fill="#304659"/>
</g>
<defs>
<clipPath id="clip0">
<rect x="16" y="20" width="37.5" height="30" fill="white"/>
</clipPath>
</defs>
</svg>
